# xmcd CD database file
#
# Track frame offsets:
#	150
#	12225
#	24725
#	41518
#	53288
#	68548
#	85345
#	101518
#	118850
#	134230
#
# Disc length: 2021 seconds
#
# Revision: 3
# Processed by: cddbd v1.5.2PL0 Copyright (c) Steve Scherf et al.
# Submitted via: CDex 1.70beta2
#
DISCID=7f07e30a
DTITLE=Mark Chesnutt - What A Way To Live
DYEAR=1994
DGENRE=Country
TTITLE0=What A Way To Live
TTITLE1=Live A Little
TTITLE2=She Dreams
TTITLE3=Goin' Through The Big D
TTITLE4=Down In Tennessee
TTITLE5=Gonna Get A Life
TTITLE6=It's Almost Like You're Here
TTITLE7=Rainy Day Woman
TTITLE8=This Side Of The Door
TTITLE9=Half Of Everything (And All Of My Heart)
EXTD=YEAR: 1994
EXTT0=
EXTT1=
EXTT2=
EXTT3=
EXTT4=
EXTT5=
EXTT6=
EXTT7=
EXTT8=
EXTT9=
PLAYORDER=
